<?xml version="1.0" encoding="UTF-8"?>
<svg xmlns="http://www.w3.org/2000/svg" xmlns:xlink="http://www.w3.org/1999/xlink" width="730pt" height="580pt" viewBox="0 0 730 580" version="1.1">
<defs>
<filter id="alpha" filterUnits="objectBoundingBox" x="0%" y="0%" width="100%" height="100%">
  <feColorMatrix type="matrix" in="SourceGraphic" values="0 0 0 0 1 0 0 0 0 1 0 0 0 0 1 0 0 0 1 0"/>
</filter>
<mask id="mask0">
  <g filter="url(#alpha)">
<rect x="0" y="0" width="730" height="580" style="fill:rgb(0%,0%,0%);fill-opacity:0.101961;stroke:none;"/>
  </g>
</mask>
<clipPath id="clip1">
  <rect width="730" height="580"/>
</clipPath>
<g id="surface6" clip-path="url(#clip1)">
<path style=" stroke:none;fill-rule:nonzero;fill:rgb(0%,0%,0%);fill-opacity:1;" d="M 423 313.949219 L 257.535156 313.949219 L 257.535156 317.695312 L 423 317.695312 L 470.917969 294.464844 L 467.054688 292.589844 Z M 423 313.949219 "/>
</g>
<mask id="mask1">
  <g filter="url(#alpha)">
<rect x="0" y="0" width="730" height="580" style="fill:rgb(0%,0%,0%);fill-opacity:0.101961;stroke:none;"/>
  </g>
</mask>
<clipPath id="clip2">
  <rect width="730" height="580"/>
</clipPath>
<g id="surface9" clip-path="url(#clip2)">
<path style=" stroke:none;fill-rule:nonzero;fill:rgb(0%,0%,0%);fill-opacity:1;" d="M 132.617188 354.039062 L 128.753906 355.910156 L 176.671875 379.140625 L 342.140625 379.140625 L 342.140625 375.394531 L 176.671875 375.394531 Z M 132.617188 354.039062 "/>
</g>
</defs>
<g id="surface1">
<path style=" stroke:none;fill-rule:nonzero;fill:rgb(100%,39.607843%,51.764706%);fill-opacity:1;" d="M 437.976562 74.902344 C 437.976562 101.390625 416.523438 122.863281 390.058594 122.863281 C 363.59375 122.863281 342.140625 101.390625 342.140625 74.902344 C 342.140625 48.417969 363.59375 26.945312 390.058594 26.945312 C 416.523438 26.945312 437.976562 48.417969 437.976562 74.902344 Z M 437.976562 74.902344 "/>
<path style=" stroke:none;fill-rule:nonzero;fill:rgb(94.901961%,94.901961%,94.901961%);fill-opacity:1;" d="M 245.777344 305.714844 C 245.777344 398.34375 190.757812 430.683594 122.886719 430.683594 C 55.019531 430.683594 0 398.34375 0 305.714844 C 0 213.085938 122.886719 95.25 122.886719 95.25 C 122.886719 95.25 245.777344 213.085938 245.777344 305.714844 Z M 245.777344 305.714844 "/>
<path style=" stroke:none;fill-rule:nonzero;fill:rgb(24.705882%,23.921569%,33.72549%);fill-opacity:1;" d="M 118.410156 416.515625 L 119.667969 338.996094 L 172.046875 243.089844 L 119.867188 326.832031 L 120.433594 291.976562 L 156.53125 222.589844 L 120.582031 282.753906 L 121.601562 220.0625 L 160.253906 164.820312 L 121.761719 210.203125 L 122.394531 95.25 L 118.402344 247.425781 L 118.730469 241.148438 L 79.429688 180.941406 L 118.097656 253.203125 L 114.4375 323.214844 L 114.328125 321.359375 L 69.019531 258 L 114.191406 327.921875 L 113.734375 336.679688 L 113.652344 336.8125 L 113.6875 337.53125 L 104.398438 515.164062 L 116.808594 515.164062 L 118.300781 423.414062 L 163.359375 353.660156 Z M 118.410156 416.515625 "/>
<path style=" stroke:none;fill-rule:nonzero;fill:rgb(94.901961%,94.901961%,94.901961%);fill-opacity:1;" d="M 609.941406 257.121094 C 609.941406 370.28125 542.726562 409.792969 459.8125 409.792969 C 376.898438 409.792969 309.683594 370.28125 309.683594 257.121094 C 309.683594 143.957031 459.8125 0 459.8125 0 C 459.8125 0 609.941406 143.957031 609.941406 257.121094 Z M 609.941406 257.121094 "/>
<path style=" stroke:none;fill-rule:nonzero;fill:rgb(24.705882%,23.921569%,33.72549%);fill-opacity:1;" d="M 454.34375 392.480469 L 455.878906 297.777344 L 519.867188 180.613281 L 456.121094 282.921875 L 456.8125 240.335938 L 500.914062 155.570312 L 456.996094 229.066406 L 458.238281 152.480469 L 505.460938 84.992188 L 458.433594 140.4375 L 459.210938 0 L 454.328125 185.910156 L 454.730469 178.242188 L 406.71875 104.6875 L 453.960938 192.964844 L 449.484375 278.5 L 449.355469 276.230469 L 394.003906 198.824219 L 449.1875 284.25 L 448.625 294.949219 L 448.527344 295.109375 L 448.570312 295.988281 L 437.222656 513 L 452.386719 513 L 454.207031 400.90625 L 509.253906 315.691406 Z M 454.34375 392.480469 "/>
<path style=" stroke:none;fill-rule:nonzero;fill:rgb(24.705882%,23.921569%,33.72549%);fill-opacity:1;" d="M 530.066406 513.277344 C 530.066406 508.722656 426.820312 505.03125 299.460938 505.03125 C 172.101562 505.03125 68.855469 508.722656 68.855469 513.277344 C 68.855469 517.828125 172.101562 521.519531 299.460938 521.519531 C 426.820312 521.519531 530.066406 517.828125 530.066406 513.277344 Z M 530.066406 513.277344 "/>
<path style=" stroke:none;fill-rule:nonzero;fill:rgb(24.705882%,23.921569%,33.72549%);fill-opacity:1;" d="M 729.976562 569.851562 C 729.976562 564.265625 682.375 559.734375 623.65625 559.734375 C 564.941406 559.734375 517.339844 564.265625 517.339844 569.851562 C 517.339844 575.4375 564.941406 579.96875 623.65625 579.96875 C 682.375 579.96875 729.976562 575.4375 729.976562 569.851562 Z M 729.976562 569.851562 "/>
<path style=" stroke:none;fill-rule:nonzero;fill:rgb(18.431373%,18.039216%,25.490196%);fill-opacity:1;" d="M 285.984375 259.996094 L 312.9375 259.996094 L 312.9375 513.277344 L 285.984375 513.277344 Z M 285.984375 259.996094 "/>
<path style=" stroke:none;fill-rule:nonzero;fill:rgb(24.705882%,23.921569%,33.72549%);fill-opacity:1;" d="M 423 317.695312 L 257.535156 317.695312 L 257.535156 271.234375 L 423 271.234375 L 470.917969 294.464844 Z M 423 317.695312 "/>
<use xlink:href="#surface6" mask="url(#mask0)"/>
<path style=" stroke:none;fill-rule:nonzero;fill:rgb(24.705882%,23.921569%,33.72549%);fill-opacity:1;" d="M 176.671875 379.140625 L 342.140625 379.140625 L 342.140625 332.683594 L 176.671875 332.683594 L 128.753906 355.910156 Z M 176.671875 379.140625 "/>
<use xlink:href="#surface9" mask="url(#mask1)"/>
<path style=" stroke:none;fill-rule:nonzero;fill:rgb(43.529412%,84.313725%,97.647059%);fill-opacity:1;" d="M 350.375 280.226562 L 378.828125 280.226562 L 378.828125 308.703125 L 350.375 308.703125 Z M 350.375 280.226562 "/>
<path style=" stroke:none;fill-rule:nonzero;fill:rgb(43.529412%,84.313725%,97.647059%);fill-opacity:1;" d="M 250.046875 355.910156 C 250.046875 363.773438 243.679688 370.148438 235.820312 370.148438 C 227.964844 370.148438 221.597656 363.773438 221.597656 355.910156 C 221.597656 348.046875 227.964844 341.675781 235.820312 341.675781 C 243.679688 341.675781 250.046875 348.046875 250.046875 355.910156 Z M 250.046875 355.910156 "/>
<path style=" stroke:none;fill-rule:nonzero;fill:rgb(18.431373%,18.039216%,25.490196%);fill-opacity:1;" d="M 307.699219 292.964844 C 307.699219 297.519531 304.011719 301.207031 299.460938 301.207031 C 294.914062 301.207031 291.226562 297.519531 291.226562 292.964844 C 291.226562 288.414062 294.914062 284.722656 299.460938 284.722656 C 304.011719 284.722656 307.699219 288.414062 307.699219 292.964844 Z M 307.699219 292.964844 "/>
<path style=" stroke:none;fill-rule:nonzero;fill:rgb(18.431373%,18.039216%,25.490196%);fill-opacity:1;" d="M 307.699219 354.414062 C 307.699219 358.964844 304.011719 362.65625 299.460938 362.65625 C 294.914062 362.65625 291.226562 358.964844 291.226562 354.414062 C 291.226562 349.859375 294.914062 346.171875 299.460938 346.171875 C 304.011719 346.171875 307.699219 349.859375 307.699219 354.414062 Z M 307.699219 354.414062 "/>
<path style=" stroke:none;fill-rule:nonzero;fill:rgb(43.529412%,84.313725%,97.647059%);fill-opacity:1;" d="M 244.058594 485.050781 C 244.058594 501.890625 234.058594 507.769531 221.71875 507.769531 C 221.433594 507.769531 221.148438 507.765625 220.863281 507.757812 C 220.292969 507.746094 219.726562 507.71875 219.167969 507.679688 C 208.03125 506.890625 199.382812 500.710938 199.382812 485.050781 C 199.382812 468.847656 220.074219 448.398438 221.628906 446.886719 L 221.628906 446.882812 C 221.691406 446.824219 221.71875 446.796875 221.71875 446.796875 C 221.71875 446.796875 244.058594 468.214844 244.058594 485.050781 Z M 244.058594 485.050781 "/>
<path style=" stroke:none;fill-rule:nonzero;fill:rgb(24.705882%,23.921569%,33.72549%);fill-opacity:1;" d="M 220.90625 505.191406 L 229.074219 493.765625 L 220.886719 506.445312 L 220.863281 507.757812 C 220.292969 507.746094 219.726562 507.71875 219.167969 507.679688 L 220.046875 490.835938 L 220.039062 490.707031 L 220.054688 490.679688 L 220.140625 489.089844 L 211.929688 476.378906 L 220.164062 487.894531 L 220.183594 488.234375 L 220.847656 475.507812 L 213.820312 462.371094 L 220.933594 473.273438 L 221.628906 446.886719 L 221.628906 446.796875 L 221.628906 446.882812 L 221.515625 467.691406 L 228.511719 459.441406 L 221.484375 469.484375 L 221.300781 480.878906 L 227.835938 469.941406 L 221.273438 482.554688 L 221.171875 488.890625 L 230.65625 473.667969 L 221.136719 491.101562 Z M 220.90625 505.191406 "/>
<path style=" stroke:none;fill-rule:nonzero;fill:rgb(34.117647%,35.294118%,53.72549%);fill-opacity:1;" d="M 589.246094 551.429688 C 589.246094 551.429688 578.644531 560.363281 573.066406 559.804688 C 567.484375 559.246094 556.886719 559.246094 561.347656 565.390625 C 565.8125 571.53125 584.226562 574.882812 592.035156 575.441406 C 599.847656 576 617.144531 576.558594 616.027344 573.207031 C 614.914062 569.855469 613.796875 554.21875 609.332031 553.105469 C 604.867188 551.988281 589.246094 551.429688 589.246094 551.429688 Z M 589.246094 551.429688 "/>
<path style=" stroke:none;fill-rule:nonzero;fill:rgb(34.117647%,35.294118%,53.72549%);fill-opacity:1;" d="M 650.089844 542.65625 C 650.089844 542.65625 642.28125 554.113281 636.753906 555.078125 C 631.230469 556.039062 621.019531 558.890625 626.96875 563.605469 C 632.917969 568.324219 651.550781 566.597656 659.226562 565.035156 C 666.898438 563.472656 683.710938 559.355469 681.734375 556.429688 C 679.761719 553.503906 674.488281 538.742188 669.886719 538.867188 C 665.289062 538.992188 650.089844 542.65625 650.089844 542.65625 Z M 650.089844 542.65625 "/>
<path style=" stroke:none;fill-rule:nonzero;fill:rgb(18.431373%,18.039216%,25.490196%);fill-opacity:1;" d="M 583.035156 378.796875 C 583.035156 378.796875 575.855469 428.015625 577.527344 436.949219 C 579.203125 445.886719 580.320312 459.847656 580.320312 459.847656 C 580.320312 459.847656 579.203125 471.574219 580.320312 477.15625 C 581.433594 482.742188 588.128906 535.792969 588.128906 536.910156 C 588.128906 538.027344 587.015625 541.375 588.128906 544.167969 C 589.246094 546.960938 591.476562 544.726562 588.128906 549.195312 C 584.78125 553.664062 587.015625 554.777344 587.574219 554.777344 C 588.128906 554.777344 609.890625 557.011719 611.007812 554.777344 C 612.121094 552.546875 610.449219 551.988281 611.007812 549.195312 C 611.566406 546.402344 612.121094 545.84375 613.238281 545.285156 C 614.355469 544.726562 616.585938 545.84375 614.914062 543.050781 C 613.238281 540.261719 609.332031 536.910156 610.449219 535.234375 C 611.566406 533.558594 609.890625 521.273438 609.890625 521.273438 C 609.890625 521.273438 608.773438 493.910156 608.21875 477.15625 C 607.660156 460.40625 613.238281 443.09375 613.238281 443.09375 C 613.933594 456.800781 619.019531 469.917969 627.746094 480.507812 C 642.253906 497.820312 649.503906 530.207031 649.503906 530.207031 C 649.503906 530.207031 652.851562 535.234375 651.179688 539.703125 C 649.503906 544.167969 644.484375 541.375 649.503906 544.167969 C 654.527344 546.960938 671.824219 543.050781 673.496094 541.375 C 675.171875 539.703125 671.265625 537.46875 672.382812 533 C 673.496094 528.53125 677.960938 529.648438 674.054688 527.417969 C 670.148438 525.183594 669.035156 525.742188 669.035156 523.507812 C 669.035156 521.273438 658.992188 472.691406 643.367188 458.730469 L 642.253906 407.914062 C 642.253906 407.914062 656.199219 372.171875 641.695312 368.824219 C 627.1875 365.472656 583.035156 378.796875 583.035156 378.796875 Z M 583.035156 378.796875 "/>
<path style=" stroke:none;fill-rule:nonzero;fill:rgb(62.745098%,38.039216%,41.568627%);fill-opacity:1;" d="M 593.152344 246.527344 C 593.152344 246.527344 602.636719 269.980469 600.40625 273.332031 C 598.171875 276.679688 627.746094 262.164062 627.746094 262.164062 C 627.746094 262.164062 618.261719 238.707031 618.261719 235.917969 C 618.261719 233.125 593.152344 246.527344 593.152344 246.527344 Z M 593.152344 246.527344 "/>
<path style=" stroke:none;fill-rule:nonzero;fill:rgb(62.745098%,38.039216%,41.568627%);fill-opacity:1;" d="M 620.769531 231.726562 C 620.769531 243.140625 611.527344 252.390625 600.125 252.390625 C 588.726562 252.390625 579.480469 243.140625 579.480469 231.726562 C 579.480469 220.316406 588.726562 211.066406 600.125 211.066406 C 611.527344 211.066406 620.769531 220.316406 620.769531 231.726562 Z M 620.769531 231.726562 "/>
<path style=" stroke:none;fill-rule:nonzero;fill:rgb(43.529412%,84.313725%,97.647059%);fill-opacity:1;" d="M 627.746094 252.667969 C 627.746094 252.667969 613.238281 250.992188 605.984375 259.929688 C 598.730469 268.863281 597.617188 271.097656 597.617188 271.097656 C 597.617188 271.097656 580.320312 299.019531 583.667969 312.980469 C 584.484375 314.238281 585.226562 315.546875 585.898438 316.886719 C 587.015625 319.121094 587.015625 350.394531 585.898438 355.421875 C 584.78125 360.445312 583.667969 362.121094 584.78125 369.378906 C 585.898438 376.640625 575.855469 388.367188 587.574219 390.601562 C 599.289062 392.835938 608.214844 391.160156 612.121094 386.132812 C 616.027344 381.109375 612.679688 377.757812 624.957031 377.757812 C 637.230469 377.757812 645.042969 369.378906 645.042969 369.378906 C 645.042969 369.378906 638.902344 362.679688 641.136719 361.5625 C 643.367188 360.445312 641.136719 357.652344 640.019531 354.863281 C 638.902344 352.070312 638.902344 349.835938 640.578125 349.835938 C 642.253906 349.835938 641.136719 348.71875 640.019531 345.925781 C 638.902344 343.132812 659.546875 295.109375 647.273438 281.148438 C 635 267.1875 628.859375 259.371094 628.859375 259.371094 C 628.859375 259.371094 631.09375 250.992188 627.746094 252.667969 Z M 627.746094 252.667969 "/>
<path style=" stroke:none;fill-rule:nonzero;fill:rgb(62.745098%,38.039216%,41.568627%);fill-opacity:1;" d="M 595.941406 305.71875 L 595.941406 330.289062 L 578.085938 389.484375 C 578.085938 389.484375 566.371094 420.199219 578.085938 420.199219 C 589.804688 420.199219 589.175781 390.882812 589.175781 390.882812 L 614.355469 346.484375 C 614.355469 346.484375 624.398438 311.304688 623.28125 308.511719 C 622.164062 305.71875 595.941406 305.71875 595.941406 305.71875 Z M 595.941406 305.71875 "/>
<path style=" stroke:none;fill-rule:nonzero;fill:rgb(43.529412%,84.313725%,97.647059%);fill-opacity:1;" d="M 605.425781 269.421875 C 605.425781 269.421875 588.6875 276.125 593.152344 293.992188 C 597.617188 311.863281 593.152344 311.304688 593.152344 311.304688 C 593.152344 311.304688 616.027344 309.070312 623.28125 314.097656 L 624.957031 307.394531 C 624.957031 307.394531 631.652344 268.863281 605.425781 269.421875 Z M 605.425781 269.421875 "/>
<path style=" stroke:none;fill-rule:nonzero;fill:rgb(18.431373%,18.039216%,25.490196%);fill-opacity:1;" d="M 593.078125 216.21875 C 590.460938 217.144531 587.550781 216.691406 585.339844 215.011719 C 583.238281 213.277344 582.34375 210.078125 583.582031 207.648438 C 584.648438 205.550781 586.933594 204.398438 589.125 203.539062 C 593.960938 201.648438 599.050781 200.496094 604.230469 200.125 C 606.695312 199.949219 609.289062 199.976562 611.492188 201.105469 C 612.582031 201.664062 613.527344 202.472656 614.609375 203.050781 C 616.59375 204.113281 618.902344 204.347656 621.046875 205.035156 C 625.488281 206.484375 629.078125 209.789062 630.894531 214.09375 C 631.480469 215.539062 631.886719 217.050781 632.109375 218.59375 C 632.75 222.816406 632.304688 227.132812 630.808594 231.136719 C 628.429688 237.472656 623.441406 243.015625 623.160156 249.777344 C 620.105469 247.5625 618.972656 243.5625 616.527344 240.6875 C 614.707031 238.5625 612.222656 237.121094 609.476562 236.59375 C 608.714844 236.546875 607.984375 236.28125 607.371094 235.824219 C 606.945312 235.316406 606.679688 234.695312 606.605469 234.035156 L 604.515625 224.160156 C 604.089844 222.152344 603.554688 219.960938 601.902344 218.742188 C 600.875 218.082031 599.710938 217.671875 598.5 217.539062 C 595.617188 217.035156 592.699219 216.769531 589.777344 216.746094 "/>
</g>
</svg>
