<?xml version="1.0" encoding="UTF-8"?>
<svg xmlns="http://www.w3.org/2000/svg" xmlns:xlink="http://www.w3.org/1999/xlink" width="400pt" height="324pt" viewBox="0 0 400 324" version="1.1">
<defs>
<filter id="alpha" filterUnits="objectBoundingBox" x="0%" y="0%" width="100%" height="100%">
  <feColorMatrix type="matrix" in="SourceGraphic" values="0 0 0 0 1 0 0 0 0 1 0 0 0 0 1 0 0 0 1 0"/>
</filter>
<mask id="mask0">
  <g filter="url(#alpha)">
<rect x="0" y="0" width="400" height="324" style="fill:rgb(0%,0%,0%);fill-opacity:0.301961;stroke:none;"/>
  </g>
</mask>
<clipPath id="clip1">
  <rect x="0" y="0" width="400" height="324"/>
</clipPath>
<g id="surface5" clip-path="url(#clip1)">
<path style=" stroke:none;fill-rule:nonzero;fill:rgb(0%,40%,99.215686%);fill-opacity:1;" d="M 99.214844 86.636719 L 316.484375 86.636719 L 316.484375 87.140625 L 99.214844 87.140625 Z M 99.214844 86.636719 "/>
</g>
<mask id="mask1">
  <g filter="url(#alpha)">
<rect x="0" y="0" width="400" height="324" style="fill:rgb(0%,0%,0%);fill-opacity:0.301961;stroke:none;"/>
  </g>
</mask>
<clipPath id="clip2">
  <rect x="0" y="0" width="400" height="324"/>
</clipPath>
<g id="surface8" clip-path="url(#clip2)">
<path style=" stroke:none;fill-rule:nonzero;fill:rgb(0%,40%,99.215686%);fill-opacity:1;" d="M 99.464844 99.15625 L 316.738281 99.15625 L 316.738281 99.65625 L 99.464844 99.65625 Z M 99.464844 99.15625 "/>
</g>
<mask id="mask2">
  <g filter="url(#alpha)">
<rect x="0" y="0" width="400" height="324" style="fill:rgb(0%,0%,0%);fill-opacity:0.301961;stroke:none;"/>
  </g>
</mask>
<clipPath id="clip3">
  <rect x="0" y="0" width="400" height="324"/>
</clipPath>
<g id="surface11" clip-path="url(#clip3)">
<path style=" stroke:none;fill-rule:nonzero;fill:rgb(0%,40%,99.215686%);fill-opacity:1;" d="M 99.464844 124.195312 L 316.738281 124.195312 L 316.738281 124.695312 L 99.464844 124.695312 Z M 99.464844 124.195312 "/>
</g>
<mask id="mask3">
  <g filter="url(#alpha)">
<rect x="0" y="0" width="400" height="324" style="fill:rgb(0%,0%,0%);fill-opacity:0.301961;stroke:none;"/>
  </g>
</mask>
<clipPath id="clip4">
  <rect x="0" y="0" width="400" height="324"/>
</clipPath>
<g id="surface14" clip-path="url(#clip4)">
<path style=" stroke:none;fill-rule:nonzero;fill:rgb(0%,40%,99.215686%);fill-opacity:1;" d="M 99.464844 135.214844 L 316.738281 135.214844 L 316.738281 135.714844 L 99.464844 135.714844 Z M 99.464844 135.214844 "/>
</g>
<mask id="mask4">
  <g filter="url(#alpha)">
<rect x="0" y="0" width="400" height="324" style="fill:rgb(0%,0%,0%);fill-opacity:0.301961;stroke:none;"/>
  </g>
</mask>
<clipPath id="clip5">
  <rect x="0" y="0" width="400" height="324"/>
</clipPath>
<g id="surface17" clip-path="url(#clip5)">
<path style=" stroke:none;fill-rule:nonzero;fill:rgb(0%,40%,99.215686%);fill-opacity:1;" d="M 99.464844 111.675781 L 316.738281 111.675781 L 316.738281 112.175781 L 99.464844 112.175781 Z M 99.464844 111.675781 "/>
</g>
<mask id="mask5">
  <g filter="url(#alpha)">
<rect x="0" y="0" width="400" height="324" style="fill:rgb(0%,0%,0%);fill-opacity:0.4;stroke:none;"/>
  </g>
</mask>
<clipPath id="clip6">
  <rect x="0" y="0" width="400" height="324"/>
</clipPath>
<g id="surface20" clip-path="url(#clip6)">
<path style=" stroke:none;fill-rule:nonzero;fill:rgb(0%,40%,99.215686%);fill-opacity:1;" d="M 399.839844 26.796875 C 399.839844 36.0625 392.332031 43.570312 383.070312 43.570312 C 373.808594 43.570312 366.296875 36.0625 366.296875 26.796875 C 366.296875 17.53125 373.808594 10.019531 383.070312 10.019531 C 392.332031 10.019531 399.839844 17.53125 399.839844 26.796875 Z M 399.839844 26.796875 "/>
</g>
<mask id="mask6">
  <g filter="url(#alpha)">
<rect x="0" y="0" width="400" height="324" style="fill:rgb(0%,0%,0%);fill-opacity:0.4;stroke:none;"/>
  </g>
</mask>
<clipPath id="clip7">
  <rect x="0" y="0" width="400" height="324"/>
</clipPath>
<g id="surface23" clip-path="url(#clip7)">
<path style=" stroke:none;fill-rule:nonzero;fill:rgb(0%,40%,99.215686%);fill-opacity:1;" d="M 363.796875 34.808594 C 363.796875 41.308594 358.527344 46.578125 352.03125 46.578125 C 345.535156 46.578125 340.265625 41.308594 340.265625 34.808594 C 340.265625 28.308594 345.535156 23.039062 352.03125 23.039062 C 358.527344 23.039062 363.796875 28.308594 363.796875 34.808594 Z M 363.796875 34.808594 "/>
</g>
<mask id="mask7">
  <g filter="url(#alpha)">
<rect x="0" y="0" width="400" height="324" style="fill:rgb(0%,0%,0%);fill-opacity:0.4;stroke:none;"/>
  </g>
</mask>
<clipPath id="clip8">
  <rect x="0" y="0" width="400" height="324"/>
</clipPath>
<g id="surface26" clip-path="url(#clip8)">
<path style=" stroke:none;fill-rule:nonzero;fill:rgb(0%,40%,99.215686%);fill-opacity:1;" d="M 343.769531 250.640625 C 343.769531 254.097656 340.96875 256.902344 337.511719 256.902344 C 334.054688 256.902344 331.253906 254.097656 331.253906 250.640625 C 331.253906 247.183594 334.054688 244.382812 337.511719 244.382812 C 340.96875 244.382812 343.769531 247.183594 343.769531 250.640625 Z M 343.769531 250.640625 "/>
</g>
<mask id="mask8">
  <g filter="url(#alpha)">
<rect x="0" y="0" width="400" height="324" style="fill:rgb(0%,0%,0%);fill-opacity:0.4;stroke:none;"/>
  </g>
</mask>
<clipPath id="clip9">
  <rect x="0" y="0" width="400" height="324"/>
</clipPath>
<g id="surface29" clip-path="url(#clip9)">
<path style=" stroke:none;fill-rule:nonzero;fill:rgb(0%,40%,99.215686%);fill-opacity:1;" d="M 235.636719 283.191406 C 235.636719 285.820312 233.507812 287.949219 230.878906 287.949219 C 228.253906 287.949219 226.125 285.820312 226.125 283.191406 C 226.125 280.5625 228.253906 278.433594 230.878906 278.433594 C 233.507812 278.433594 235.636719 280.5625 235.636719 283.191406 Z M 235.636719 283.191406 "/>
</g>
<mask id="mask9">
  <g filter="url(#alpha)">
<rect x="0" y="0" width="400" height="324" style="fill:rgb(0%,0%,0%);fill-opacity:0.4;stroke:none;"/>
  </g>
</mask>
<clipPath id="clip10">
  <rect x="0" y="0" width="400" height="324"/>
</clipPath>
<g id="surface32" clip-path="url(#clip10)">
<path style=" stroke:none;fill-rule:nonzero;fill:rgb(0%,40%,99.215686%);fill-opacity:1;" d="M 221.117188 220.09375 C 221.117188 223.550781 218.316406 226.355469 214.859375 226.355469 C 211.402344 226.355469 208.601562 223.550781 208.601562 220.09375 C 208.601562 216.636719 211.402344 213.835938 214.859375 213.835938 C 218.316406 213.835938 221.117188 216.636719 221.117188 220.09375 Z M 221.117188 220.09375 "/>
</g>
</defs>
<g id="surface1">
<path style=" stroke:none;fill-rule:nonzero;fill:rgb(94.901961%,94.901961%,94.901961%);fill-opacity:1;" d="M 63.496094 0 L 37.054688 51.585938 L 42.394531 51.585938 L 42.394531 93.648438 L 15.496094 93.648438 L 0 123.882812 L 192.003906 222.351562 L 255.5 98.46875 Z M 63.496094 0 "/>
<path style=" stroke:none;fill-rule:nonzero;fill:rgb(24.705882%,23.921569%,33.72549%);fill-opacity:1;" d="M 57.914062 33.554688 L 352.28125 33.554688 L 352.28125 181.285156 L 57.914062 181.285156 Z M 57.914062 33.554688 "/>
<use xlink:href="#surface5" mask="url(#mask0)"/>
<use xlink:href="#surface8" mask="url(#mask1)"/>
<use xlink:href="#surface11" mask="url(#mask2)"/>
<use xlink:href="#surface14" mask="url(#mask3)"/>
<use xlink:href="#surface17" mask="url(#mask4)"/>
<path style=" stroke:none;fill-rule:nonzero;fill:rgb(24.705882%,23.921569%,33.72549%);fill-opacity:1;" d="M 376.8125 315.492188 C 376.8125 310.789062 335.121094 306.976562 283.695312 306.976562 C 232.269531 306.976562 190.578125 310.789062 190.578125 315.492188 C 190.578125 320.191406 232.269531 324.003906 283.695312 324.003906 C 335.121094 324.003906 376.8125 320.191406 376.8125 315.492188 Z M 376.8125 315.492188 "/>
<path style=" stroke:none;fill-rule:nonzero;fill:rgb(0%,40%,99.215686%);fill-opacity:1;" d="M 105.492188 135.574219 L 104.800781 134.851562 L 137.144531 104.015625 L 165.652344 124.527344 L 188.707031 98.960938 L 198.816406 107.558594 L 226.3125 91.050781 L 256.859375 111.589844 L 304.800781 84.3125 L 305.292969 85.183594 L 256.816406 112.765625 L 226.285156 92.238281 L 198.714844 108.785156 L 188.796875 100.355469 L 165.792969 125.867188 L 137.230469 105.316406 Z M 105.492188 135.574219 "/>
<path style=" stroke:none;fill-rule:nonzero;fill:rgb(24.705882%,23.921569%,33.72549%);fill-opacity:1;" d="M 198.625 298.382812 C 200.980469 307.085938 209.039062 312.472656 209.039062 312.472656 C 209.039062 312.472656 213.285156 303.753906 210.929688 295.054688 C 208.578125 286.355469 200.519531 280.964844 200.519531 280.964844 C 200.519531 280.964844 196.273438 289.683594 198.625 298.382812 Z M 198.625 298.382812 "/>
<path style=" stroke:none;fill-rule:nonzero;fill:rgb(0%,40%,99.215686%);fill-opacity:1;" d="M 202.085938 296.515625 C 208.539062 302.800781 209.328125 312.464844 209.328125 312.464844 C 209.328125 312.464844 199.648438 311.9375 193.191406 305.648438 C 186.738281 299.363281 185.949219 289.699219 185.949219 289.699219 C 185.949219 289.699219 195.628906 290.226562 202.085938 296.515625 Z M 202.085938 296.515625 "/>
<use xlink:href="#surface20" mask="url(#mask5)"/>
<use xlink:href="#surface23" mask="url(#mask6)"/>
<use xlink:href="#surface26" mask="url(#mask7)"/>
<use xlink:href="#surface29" mask="url(#mask8)"/>
<use xlink:href="#surface32" mask="url(#mask9)"/>
<path style=" stroke:none;fill-rule:nonzero;fill:rgb(0%,40%,99.215686%);fill-opacity:1;" d="M 310.980469 86.886719 C 310.980469 90.484375 308.066406 93.398438 304.472656 93.398438 C 300.875 93.398438 297.964844 90.484375 297.964844 86.886719 C 297.964844 83.292969 300.875 80.378906 304.472656 80.378906 C 308.066406 80.378906 310.980469 83.292969 310.980469 86.886719 Z M 310.980469 86.886719 "/>
<path style=" stroke:none;fill-rule:nonzero;fill:rgb(18.431373%,18.039216%,25.490196%);fill-opacity:1;" d="M 262.183594 204.804688 L 256.667969 205.417969 C 256.667969 205.417969 254.214844 216.453125 256.667969 231.171875 C 259.121094 245.886719 262.183594 260.605469 262.183594 260.605469 C 262.183594 260.605469 264.636719 308.433594 265.863281 309.046875 C 267.089844 309.660156 278.125 313.339844 278.734375 309.660156 C 279.347656 305.980469 279.347656 221.972656 279.347656 221.972656 L 287.929688 262.445312 C 287.929688 262.445312 289.15625 313.339844 291.609375 313.339844 C 294.0625 313.339844 302.03125 312.726562 302.03125 308.433594 C 302.03125 304.140625 303.871094 247.726562 303.871094 247.726562 C 303.871094 247.726562 303.257812 206.03125 300.804688 204.804688 C 298.351562 203.578125 262.183594 204.804688 262.183594 204.804688 Z M 262.183594 204.804688 "/>
<path style=" stroke:none;fill-rule:nonzero;fill:rgb(18.431373%,18.039216%,25.490196%);fill-opacity:1;" d="M 267.089844 307.207031 C 267.089844 307.207031 261.570312 306.59375 260.34375 307.207031 C 259.121094 307.820312 257.28125 312.113281 260.34375 314.566406 C 263.410156 317.019531 271.378906 320.699219 273.832031 320.699219 C 275.53125 320.621094 277.199219 320.203125 278.734375 319.472656 L 277.511719 309.046875 Z M 267.089844 307.207031 "/>
<path style=" stroke:none;fill-rule:nonzero;fill:rgb(18.431373%,18.039216%,25.490196%);fill-opacity:1;" d="M 291.609375 310.273438 L 292.222656 318.859375 C 292.222656 318.859375 300.191406 320.085938 300.804688 318.859375 C 301.417969 317.632812 307.546875 314.566406 308.160156 313.953125 C 308.773438 313.339844 309.386719 306.59375 305.707031 305.980469 C 302.03125 305.367188 300.804688 307.207031 300.804688 307.207031 Z M 291.609375 310.273438 "/>
<path style=" stroke:none;fill-rule:nonzero;fill:rgb(100%,72.156863%,72.156863%);fill-opacity:1;" d="M 240.117188 153.292969 C 240.117188 153.292969 225.402344 167.398438 227.242188 174.757812 C 229.082031 182.113281 243.792969 203.578125 243.792969 203.578125 C 243.792969 203.578125 257.894531 210.933594 259.734375 203.578125 C 261.570312 196.21875 249.925781 198.058594 249.925781 198.058594 L 240.730469 175.984375 L 251.148438 161.265625 Z M 240.117188 153.292969 "/>
<path style=" stroke:none;fill-rule:nonzero;fill:rgb(100%,72.156863%,72.156863%);fill-opacity:1;" d="M 305.855469 131.839844 C 305.855469 131.839844 319.257812 123.21875 318.949219 117.292969 C 318.636719 111.371094 310.558594 92.695312 310.558594 92.695312 C 310.558594 92.695312 304.238281 79.550781 301.722656 84.921875 C 299.210938 90.296875 305.027344 96.015625 305.027344 96.015625 L 308.78125 114.332031 L 298.578125 124.066406 Z M 305.855469 131.839844 "/>
<path style=" stroke:none;fill-rule:nonzero;fill:rgb(100%,72.156863%,72.156863%);fill-opacity:1;" d="M 283.640625 108.53125 C 283.640625 114.628906 278.699219 119.570312 272.605469 119.570312 C 266.511719 119.570312 261.570312 114.628906 261.570312 108.53125 C 261.570312 102.433594 266.511719 97.492188 272.605469 97.492188 C 278.699219 97.492188 283.640625 102.433594 283.640625 108.53125 Z M 283.640625 108.53125 "/>
<path style=" stroke:none;fill-rule:nonzero;fill:rgb(100%,72.156863%,72.156863%);fill-opacity:1;" d="M 267.089844 115.277344 L 268.929688 126.925781 L 282.414062 124.472656 C 282.414062 124.472656 281.800781 112.824219 281.800781 111.597656 C 281.800781 110.371094 267.089844 115.277344 267.089844 115.277344 Z M 267.089844 115.277344 "/>
<path style=" stroke:none;fill-rule:nonzero;fill:rgb(81.568627%,80.392157%,88.235294%);fill-opacity:1;" d="M 266.476562 126.925781 C 266.476562 126.925781 281.800781 123.25 283.640625 124.472656 C 285.480469 125.699219 294.675781 126.925781 294.675781 126.925781 L 305.097656 142.871094 L 302.03125 163.105469 C 302.03125 163.105469 301.417969 195.605469 302.644531 201.125 C 303.871094 206.644531 310.613281 207.257812 296.511719 208.480469 C 282.414062 209.707031 279.960938 207.871094 270.152344 210.320312 C 260.34375 212.773438 252.375 209.09375 254.828125 206.644531 C 257.28125 204.191406 261.570312 164.945312 256.667969 161.265625 C 251.761719 157.585938 249.925781 138.578125 249.925781 138.578125 C 249.925781 138.578125 266.476562 129.992188 266.476562 126.925781 Z M 266.476562 126.925781 "/>
<path style=" stroke:none;fill-rule:nonzero;fill:rgb(81.568627%,80.392157%,88.235294%);fill-opacity:1;" d="M 292.835938 128.765625 L 298.351562 123.25 C 298.351562 123.25 310.304688 128.460938 309.695312 130.300781 C 309.082031 132.140625 305.097656 142.871094 305.097656 142.871094 L 299.578125 144.710938 Z M 292.835938 128.765625 "/>
<path style=" stroke:none;fill-rule:nonzero;fill:rgb(81.568627%,80.392157%,88.235294%);fill-opacity:1;" d="M 257.28125 139.804688 L 249.925781 138.578125 C 249.925781 138.578125 244.40625 144.710938 242.566406 147.164062 C 240.730469 149.617188 237.050781 155.746094 237.050781 155.746094 L 249.925781 164.945312 L 259.734375 154.519531 Z M 257.28125 139.804688 "/>
<path style=" stroke:none;fill-rule:nonzero;fill:rgb(18.431373%,18.039216%,25.490196%);fill-opacity:1;" d="M 276.457031 95.160156 L 276.34375 94.273438 C 275.59375 94.269531 274.847656 94.386719 274.136719 94.621094 C 274.0625 94.089844 274.109375 93.546875 274.273438 93.035156 C 273.546875 93.21875 272.859375 93.519531 272.226562 93.921875 L 271.78125 92.308594 L 265.652344 95.328125 C 263.453125 96.414062 261.132812 97.605469 259.878906 99.710938 C 258.476562 102.058594 258.71875 105.078125 259.675781 107.640625 C 260.636719 110.199219 262.226562 112.46875 263.503906 114.886719 C 263.988281 115.925781 264.570312 116.917969 265.242188 117.847656 C 267.558594 120.730469 272.058594 121.3125 275.320312 119.574219 C 276.5625 118.976562 277.550781 117.957031 278.113281 116.699219 C 278.351562 115.917969 278.539062 115.125 278.671875 114.316406 C 279.074219 112.671875 279.542969 109.265625 280.882812 108.226562 C 281.46875 107.765625 282.636719 109.285156 283.125 108.722656 C 284.378906 107.269531 284.117188 105.03125 283.339844 103.277344 C 282.589844 101.515625 281.71875 99.808594 280.722656 98.175781 C 280.300781 97.519531 276.441406 95.054688 276.457031 95.160156 Z M 276.457031 95.160156 "/>
<path style=" stroke:none;fill-rule:nonzero;fill:rgb(24.705882%,23.921569%,33.72549%);fill-opacity:1;" d="M 6.347656 57.59375 L 38.386719 57.59375 L 38.386719 89.644531 L 6.347656 89.644531 Z M 6.347656 57.59375 "/>
</g>
</svg>
